<?xml version="1.0" encoding="utf-8"?>
<!-- Generator: Adobe Illustrator 19.0.0, SVG Export Plug-In . SVG Version: 6.00 Build 0)  -->
<svg version="1.1" id="Calque_1" xmlns="http://www.w3.org/2000/svg" xmlns:xlink="http://www.w3.org/1999/xlink" x="0px" y="0px"
	 viewBox="0 0 1280 800" style="enable-background:new 0 0 1280 800;" xml:space="preserve">
<text id="XMLID_3_" transform="matrix(1 0 0 1 26.7075 14.6274)" style="font-family:'Roboto-Regular'; font-size:15.9372px;">La city</text>
<g id="XMLID_12_">
	<path id="XMLID_4_" d="M9,25.6c-7.5-10.9-8.9-12-8.9-16c0-5.5,4.4-9.9,9.9-9.9S20,4.1,20,9.6c0,4-1.4,5.1-8.9,16
		C10.6,26.4,9.5,26.4,9,25.6L9,25.6z"/>
	<g id="XMLID_1_">
		<path id="XMLID_7_" style="fill:#FFFFFF;" d="M7.9,5.1c0,0.3-0.1,0.6-0.3,0.8C7.3,6.1,7.1,6.2,6.8,6.3L6.7,6.4
			c0.1,0.5-0.1,1-0.4,1.4C5.9,8.1,5.4,8.3,4.9,8.2L4.8,8.3l0.1,0.3L3.8,9.7L2.1,8l1.2-1.2L3.5,7l0.1-0.1C3.5,6.4,3.7,5.9,4,5.5
			C4.4,5.2,4.9,5,5.4,5.1L5.5,5c0-0.3,0.1-0.5,0.3-0.7c0.5-0.5,1.2-0.5,1.7,0C7.8,4.5,7.9,4.8,7.9,5.1z"/>
		<g id="XMLID_2_">
			<path id="XMLID_5_" style="fill:#FFFFFF;" d="M15.2,15l-1.7,1.7L8.8,12l-1.5-1.9L4.8,7.6l0.6-0.2c0.1,0,0.2-0.1,0.2-0.1l0.1-0.1
				C5.8,7.1,5.8,7,5.9,6.9l0.2-0.6l2.6,2.6l1.9,1.5L15.2,15z"/>
		</g>
	</g>
	<g id="XMLID_17_">
		<path id="XMLID_18_" style="fill:#FFFFFF;" d="M10.9,8.5c0.1,0,0.2,0,0.3,0.1l0.7,0.7c0.1,0.1,0.1,0.2,0.1,0.3s0,0.2-0.1,0.3l-4,4
			l-0.5,1c0,0.1-0.1,0.1-0.2,0.2l-1,0.5c-0.1,0.1-0.3,0-0.4-0.1L5,14.8c-0.1-0.1-0.1-0.3-0.1-0.4l0.5-1c0-0.1,0.1-0.1,0.2-0.2l1-0.5
			l4-4C10.7,8.6,10.8,8.5,10.9,8.5z"/>
	</g>
	<g id="XMLID_13_">
		<path id="XMLID_14_" style="fill:#FFFFFF;" d="M14.6,3.4c0.4,0,0.8,0.2,1,0.4l1,1c0.6,0.6,0.6,1.5,0,2.1l-2.2,2.2
			c-0.1,0.1-0.4,0.1-0.5,0c-0.1-0.1-0.3-0.1-0.5,0c-0.1,0.1-0.1,0.1-0.1,0.2c0,0.1,0,0.2,0.1,0.2c0.1,0.1,0.1,0.2,0.1,0.3
			s0,0.2-0.1,0.3l-0.7,0.7c-0.1,0.1-0.4,0.1-0.5,0L9.7,8.3c-0.1-0.1-0.1-0.4,0-0.5l0.7-0.7c0.1-0.1,0.4-0.1,0.5,0
			c0.1,0.1,0.3,0.1,0.5,0c0.1-0.1,0.1-0.3,0-0.5c-0.1-0.1-0.1-0.2-0.1-0.3c0-0.1,0-0.2,0.1-0.3l2.2-2.2C13.8,3.6,14.2,3.4,14.6,3.4z
			 M16.1,5.4"/>
	</g>
</g>
</svg>
