<?xml version="1.0" encoding="utf-8"?>
<!-- Generator: Adobe Illustrator 19.0.0, SVG Export Plug-In . SVG Version: 6.00 Build 0)  -->
<svg version="1.1" id="Calque_1" xmlns="http://www.w3.org/2000/svg" xmlns:xlink="http://www.w3.org/1999/xlink" x="0px" y="0px"
	 viewBox="0 0 1280 800" style="enable-background:new 0 0 1280 800;" xml:space="preserve">
<text id="XMLID_3_" transform="matrix(1 0 0 1 26.7075 14.6274)" style="font-family:'Roboto-Regular'; font-size:15.9372px;">La city</text>
<g id="XMLID_6_">
	<path id="XMLID_4_" d="M9,25.6c-7.5-10.9-8.9-12-8.9-16c0-5.5,4.4-9.9,9.9-9.9S20,4.1,20,9.6c0,4-1.4,5.1-8.9,16
		C10.6,26.4,9.5,26.4,9,25.6L9,25.6z"/>
	<g id="XMLID_5_">
		<path id="XMLID_2_" style="fill:#FFFFFF;" d="M16.7,8.7c0,1.4,0,2.5,0,3.8c0,0.3-0.2,0.5-0.5,0.5c-0.3,0-0.5-0.2-0.5-0.5v-1.9
			c-4,0-7.2,0-11.4,0v1.9c0,0.3-0.2,0.5-0.5,0.5s-0.5-0.2-0.5-0.5V5.3c0-0.3,0.2-0.5,0.5-0.5s0.5,0.2,0.5,0.5v4.3h3.8V6.8
			c0-0.3,0.2-0.5,0.5-0.5h5.7C15.7,6.3,16.7,7.3,16.7,8.7z"/>
		<path id="XMLID_1_" style="fill:#FFFFFF;" d="M6.3,9.1c-0.8,0-1.4-0.6-1.4-1.4s0.6-1.4,1.4-1.4s1.4,0.6,1.4,1.4S7,9.1,6.3,9.1z"/>
	</g>
</g>
</svg>
