<?xml version="1.0" encoding="utf-8"?>
<!-- Generator: Adobe Illustrator 19.0.0, SVG Export Plug-In . SVG Version: 6.00 Build 0)  -->
<svg version="1.1" id="Calque_1" xmlns="http://www.w3.org/2000/svg" xmlns:xlink="http://www.w3.org/1999/xlink" x="0px" y="0px"
	 viewBox="0 0 1280 800" style="enable-background:new 0 0 1280 800;" xml:space="preserve">
<text id="XMLID_3_" transform="matrix(1 0 0 1 26.7075 14.6274)" style="font-family:'Roboto-Regular'; font-size:15.9372px;">La city</text>
<g id="XMLID_1_">
	<path id="XMLID_4_" d="M9,25.6c-7.5-10.9-8.9-12-8.9-16c0-5.5,4.4-9.9,9.9-9.9S20,4.1,20,9.6c0,4-1.4,5.1-8.9,16
		C10.6,26.4,9.5,26.4,9,25.6L9,25.6z"/>
	<g id="XMLID_10_">
		<path id="XMLID_7_" style="fill:#FFFFFF;" d="M8.8,9.3L9,9.2L9.5,10l0.8-1l-1.6-2L6.3,3.8C6.2,3.7,6,3.6,5.8,3.7
			C5.3,4,5.1,4.5,5.3,5L7,8.7C7.3,9.4,8.1,9.6,8.8,9.3z"/>
		<path id="XMLID_6_" style="fill:#FFFFFF;" d="M11.8,10.8l-0.9,1.5l1.8,3.1c0.3,0.5,0.9,0.6,1.5,0.4l0.1-0.1
			c0.5-0.3,0.7-0.9,0.3-1.3L11.8,10.8z"/>
		<path id="XMLID_5_" style="fill:#FFFFFF;" d="M15.9,4.8c-0.2-0.1-0.4-0.1-0.5,0.1c0,0-1.4,1.9-1.8,2.5c-0.1,0.1-0.2,0.1-0.3,0.1
			l0,0c-0.1-0.1-0.1-0.2-0.1-0.2c0.4-0.6,1.6-2.5,1.6-2.5c0.1-0.1,0-0.3-0.2-0.4c-0.1,0-0.3,0-0.4,0.1l-1.8,2.5
			c-0.1,0.1-0.2,0.1-0.3,0.1l0,0c-0.1-0.1-0.1-0.2-0.1-0.2c0.4-0.6,1.6-2.5,1.6-2.5c0.1-0.1,0-0.3-0.2-0.4c-0.1,0-0.3,0-0.4,0.1
			l-1.9,2.6l0,0l0,0l-0.2,0.3c-0.2,0.3-0.3,0.8-0.2,1.1l0.2,0.7l-4.7,5.9c-0.3,0.4-0.2,1,0.3,1.3L7,15.8c0.5,0.3,1.2,0.1,1.5-0.4
			L12.2,9L13,8.8c0.4-0.1,0.8-0.3,1-0.7l0.2-0.3l0,0l0,0l1.7-2.7C16.1,5,16,4.8,15.9,4.8z"/>
	</g>
</g>
</svg>
