<?xml version="1.0" encoding="utf-8"?>
<!-- Generator: Adobe Illustrator 19.0.0, SVG Export Plug-In . SVG Version: 6.00 Build 0)  -->
<svg version="1.1" id="Calque_1" xmlns="http://www.w3.org/2000/svg" xmlns:xlink="http://www.w3.org/1999/xlink" x="0px" y="0px"
	 viewBox="0 0 1280 800" style="enable-background:new 0 0 1280 800;" xml:space="preserve">
<text id="XMLID_3_" transform="matrix(1 0 0 1 26.7075 14.6274)" style="font-family:'Roboto-Regular'; font-size:15.9372px;">La city</text>
<g id="XMLID_12_">
	<path id="XMLID_4_" d="M9,25.6c-7.5-10.9-8.9-12-8.9-16c0-5.5,4.4-9.9,9.9-9.9S20,4.1,20,9.6c0,4-1.4,5.1-8.9,16
		C10.6,26.4,9.5,26.4,9,25.6L9,25.6z"/>
</g>
<path id="XMLID_2_" style="fill:#FFFFFF;" d="M13.2,10c-1-0.2-2.3-0.3-4.1-0.3c0,0,0,0,0,0c-2,0-3.7-1.3-3.7-2.9
	c0-1.1,0.5-2.1,1.3-2.6C7.9,3.4,9,3.4,11.1,4.2c0.5,0.2,1.5,0.4,1.7-0.2c0.3-1-0.4-1.5-1-1.7C8.4,1,6.8,1.7,5.6,2.6
	C4.3,3.5,3.4,5.1,3.4,6.8c0,0,0,0.1,0,0.1c0,1.3,0.6,2.5,1.7,3.5c1.1,0.9,2.5,1.4,4,1.4c1.5,0,2.9,0,3.8,0.2
	c0.9,0.2,0.9,0.5,0.9,0.7c0,0.2,0,0.2-0.1,0.2c-0.1,0.1-0.2,0.2-1,0.3c-0.6,0.1-1.5,0.1-2.4,0l-1.3,0c-0.1,0-0.3,0-0.4,0
	c-1.9,0.3-2.5,1.7-2.5,2.9c0,1.6,0.7,2.3,3.3,2.9c0.2,0.1,0.3,0.1,0.6,0.1c0.6,0.1,0.8,0.6,0.1,1c1-0.1,1.3-0.5,1.3-1
	c0-0.6-0.1-0.9-0.6-1.3c-0.5-0.4-0.8-0.5-1.7-0.7c-0.7-0.2-1-0.5-1-1c0-0.2,0-0.9,1.2-0.9c0.3,0,0.6,0,0.9,0c0.4,0,0.7,0,1.1,0
	c1.6,0,2.9-0.1,3.7-0.9c0.3-0.3,0.7-0.8,0.7-1.7C15.8,11.7,15.2,10.5,13.2,10z"/>
<path id="XMLID_1_" style="fill:#FFFFFF;" d="M7.6,5.5c0,1.8,2,3.3,4.5,3.3c2.5,0,4.5-1.5,4.5-3.3C16.6,5.5,7.6,5.5,7.6,5.5z"/>
</svg>
