<?xml version="1.0" encoding="utf-8"?>
<!-- Generator: Adobe Illustrator 19.0.0, SVG Export Plug-In . SVG Version: 6.00 Build 0)  -->
<svg version="1.1" id="Calque_1" xmlns="http://www.w3.org/2000/svg" xmlns:xlink="http://www.w3.org/1999/xlink" x="0px" y="0px"
	 viewBox="0 0 1280 800" style="enable-background:new 0 0 1280 800;" xml:space="preserve">
<text id="XMLID_3_" transform="matrix(1 0 0 1 26.7075 14.6274)" style="font-family:'Roboto-Regular'; font-size:15.9372px;">La city</text>
<g id="XMLID_12_">
	<path id="XMLID_4_" d="M9,25.6c-7.5-10.9-8.9-12-8.9-16c0-5.5,4.4-9.9,9.9-9.9S20,4.1,20,9.6c0,4-1.4,5.1-8.9,16
		C10.6,26.4,9.5,26.4,9,25.6L9,25.6z"/>
</g>
<g id="XMLID_6_">
	<path id="XMLID_7_" style="fill:#FFFFFF;" d="M14.8,4.2c-0.2-0.2-0.4-0.2-0.6,0s-0.2,0.4,0,0.6l0.6,0.6c-0.1,0.2-0.1,0.4-0.1,0.6
		c0,0.7,0.5,1.3,1.1,1.5v5.3c0,0.3-0.2,0.5-0.5,0.5c-0.3,0-0.5-0.2-0.5-0.5v-0.4c0-0.9-0.7-1.6-1.6-1.6V4.4c0-1-0.8-1.8-1.8-1.8H7.1
		c-1,0-1.8,0.8-1.8,1.8v10.3l0,0c-0.5,0-1,0.4-1,1h9.8c0-0.5-0.4-1-1-1H13v-3.1c0.4,0,0.8,0.3,0.8,0.8v0.4c0,0.8,0.6,1.4,1.4,1.4
		c0.8,0,1.4-0.6,1.4-1.4V6.2C16.6,5.9,16.5,5.9,14.8,4.2z M6.6,4.4C6.6,4.2,6.8,4,7.1,4h4.2c0.2,0,0.4,0.2,0.4,0.4v3.2H6.6V4.4z"/>
</g>
</svg>
