<?xml version="1.0" encoding="utf-8"?>
<!-- Generator: Adobe Illustrator 19.0.0, SVG Export Plug-In . SVG Version: 6.00 Build 0)  -->
<svg version="1.1" id="Calque_1" xmlns="http://www.w3.org/2000/svg" xmlns:xlink="http://www.w3.org/1999/xlink" x="0px" y="0px"
	 viewBox="0 0 1280 800" style="enable-background:new 0 0 1280 800;" xml:space="preserve">
<text id="XMLID_3_" transform="matrix(1 0 0 1 26.7075 14.6274)" style="font-family:'Roboto-Regular'; font-size:15.9372px;">La city</text>
<path id="XMLID_4_" d="M9,25.6c-7.5-10.9-8.9-12-8.9-16c0-5.5,4.4-9.9,9.9-9.9s10,4.4,10,9.9c0,4-1.4,5.1-8.9,16
	C10.6,26.4,9.5,26.4,9,25.6L9,25.6z"/>
<g>
	<path id="XMLID_16_" style="fill:#FFFFFF;" d="M14.9,14.9H5.2c-0.3,0-0.5-0.2-0.5-0.5l0,0l0.6-8.8c0-0.2,0.2-0.4,0.5-0.4h8.5
		c0.2,0,0.5,0.2,0.5,0.4l0.6,8.8C15.4,14.7,15.2,14.9,14.9,14.9C15,14.9,15,14.9,14.9,14.9z"/>
	<path id="XMLID_9_" style="fill:#FFFFFF;" d="M12.3,4.7c-0.3,0-0.5-0.2-0.5-0.5c0-1-0.8-1.7-1.7-1.7S8.4,3.2,8.4,4.2
		c0,0.3-0.3,0.5-0.5,0.5c-0.3,0-0.5-0.2-0.5-0.5c0-1.5,1.2-2.7,2.7-2.7s2.7,1.2,2.7,2.7C12.7,4.5,12.5,4.7,12.3,4.7z"/>
	<path id="XMLID_8_" style="fill:#FFFFFF;" d="M7.9,8.4c-0.3,0-0.5-0.2-0.5-0.5V4.2c0-0.3,0.2-0.5,0.5-0.5s0.5,0.2,0.5,0.5V8
		C8.3,8.2,8.1,8.4,7.9,8.4z"/>
	<path id="XMLID_7_" style="fill:#FFFFFF;" d="M12.3,8.4c-0.3,0-0.5-0.2-0.5-0.5V4.2c0-0.3,0.2-0.5,0.5-0.5c0.3,0,0.5,0.2,0.5,0.5V8
		C12.7,8.2,12.5,8.4,12.3,8.4z"/>
</g>
</svg>
